<svg aria-hidden="true" style="position: absolute; width: 0; height: 0; overflow: hidden;" version="1.1" xmlns="http://www.w3.org/2000/svg" xmlns:xlink="http://www.w3.org/1999/xlink">
<defs>
<symbol id="icon-wallet" viewBox="0 0 20 20">
<path d="M16 6h-12.5v-0.5l11-0.88v0.88h1.5v-1.5c0-1.1-0.891-1.872-1.979-1.717l-10.041 1.434c-1.089 0.156-1.98 1.183-1.98 2.283v10c0 1.104 0.895 2 2 2h12c1.104 0 2-0.896 2-2v-8c0-1.104-0.896-2-2-2zM14.5 13.006c-0.828 0-1.5-0.672-1.5-1.5s0.672-1.5 1.5-1.5 1.5 0.672 1.5 1.5-0.672 1.5-1.5 1.5z"></path>
</symbol>
<symbol id="icon-messages" viewBox="0 0 24 24">
<path d="M21 7h-3c0-1.65-1.35-3-3-3h-12c-1.65 0-3 1.35-3 3v7c0 1.65 1.35 3 3 3v3l3-3c0 1.65 1.35 3 3 3h8l3 3v-3h1c1.65 0 3-1.35 3-3v-7c0-1.65-1.35-3-3-3zM3 15c-0.542 0-1-0.458-1-1v-7c0-0.542 0.458-1 1-1h12c0.542 0 1 0.458 1 1v1h-6.5c-1.379 0-2.5 1.121-2.5 2.5v4.5h-4zM22 17c0 0.542-0.458 1-1 1h-12c-0.542 0-1-0.458-1-1v-6.5c0-0.827 0.673-1.5 1.5-1.5h11.5c0.542 0 1 0.458 1 1v7z"></path>
</symbol>
<symbol id="icon-home" viewBox="0 0 32 32">
<path d="M32 18.451l-16-12.42-16 12.42v-5.064l16-12.42 16 12.42zM28 18v12h-8v-8h-8v8h-8v-12l12-9z"></path>
</symbol>
<symbol id="icon-home3" viewBox="0 0 32 32">
<path d="M32 19l-6-6v-9h-4v5l-6-6-16 16v1h4v10h10v-6h4v6h10v-10h4z"></path>
</symbol>
<symbol id="icon-library" viewBox="0 0 34 32">
<path d="M32 30v-2h-2v-12h2v-2h-6v2h2v12h-6v-12h2v-2h-6v2h2v12h-6v-12h2v-2h-6v2h2v12h-6v-12h2v-2h-6v2h2v12h-2v2h-2v2h34v-2h-2z"></path>
<path d="M16 0h2l16 10v2h-34v-2l16-10z"></path>
</symbol>
<symbol id="icon-coin-dollar" viewBox="0 0 32 32">
<path d="M15 2c-8.284 0-15 6.716-15 15s6.716 15 15 15c8.284 0 15-6.716 15-15s-6.716-15-15-15zM15 29c-6.627 0-12-5.373-12-12s5.373-12 12-12c6.627 0 12 5.373 12 12s-5.373 12-12 12zM16 16v-4h4v-2h-4v-2h-2v2h-4v8h4v4h-4v2h4v2h2v-2h4l-0-8h-4zM14 16h-2v-4h2v4zM18 22h-2v-4h2v4z"></path>
</symbol>
<symbol id="icon-spoon-knife" viewBox="0 0 32 32">
<path d="M7 0c-3.314 0-6 3.134-6 7 0 3.31 1.969 6.083 4.616 6.812l-0.993 16.191c-0.067 1.098 0.778 1.996 1.878 1.996h1c1.1 0 1.945-0.898 1.878-1.996l-0.993-16.191c2.646-0.729 4.616-3.502 4.616-6.812 0-3.866-2.686-7-6-7zM27.167 0l-1.667 10h-1.25l-0.833-10h-0.833l-0.833 10h-1.25l-1.667-10h-0.833v13c0 0.552 0.448 1 1 1h2.604l-0.982 16.004c-0.067 1.098 0.778 1.996 1.878 1.996h1c1.1 0 1.945-0.898 1.878-1.996l-0.982-16.004h2.604c0.552 0 1-0.448 1-1v-13h-0.833z"></path>
</symbol>
<symbol id="icon-briefcase" viewBox="0 0 32 32">
<path d="M30 8h-8v-2c0-1.1-0.9-2-2-2h-8c-1.1 0-2 0.9-2 2v2h-8c-1.1 0-2 0.9-2 2v18c0 1.1 0.9 2 2 2h28c1.1 0 2-0.9 2-2v-18c0-1.1-0.9-2-2-2zM12 6.004c0.001-0.001 0.002-0.003 0.004-0.004h7.993c0.001 0.001 0.003 0.002 0.004 0.004v1.996h-8v-1.996zM30 16h-4v3c0 0.55-0.45 1-1 1h-2c-0.55 0-1-0.45-1-1v-3h-12v3c0 0.55-0.45 1-1 1h-2c-0.55 0-1-0.45-1-1v-3h-4v-2h28v2z"></path>
</symbol>
<symbol id="icon-loop" viewBox="0 0 32 32">
<path d="M4 10h20v6l8-8-8-8v6h-24v12h4zM28 22h-20v-6l-8 8 8 8v-6h24v-12h-4z"></path>
</symbol>
<symbol id="icon-tab" viewBox="0 0 32 32">
<path d="M30 0h2v16h-2v-16z"></path>
<path d="M0 16h2v16h-2v-16z"></path>
<path d="M10 22h22v4h-22v5l-7-7 7-7v5z"></path>
<path d="M22 10h-22v-4h22v-5l7 7-7 7z"></path>
</symbol>
</defs>
</svg>
